<svg xmlns="http://www.w3.org/2000/svg" xmlns:xlink="http://www.w3.org/1999/xlink" width="1662" zoomAndPan="magnify" viewBox="0 0 1246.5 809.999993" height="1080" preserveAspectRatio="xMidYMid meet" version="1.0"><defs><clipPath id="47f4bedfac"><path d="M 311.1875 160.640625 L 934.558594 160.640625 L 934.558594 695.878906 L 311.1875 695.878906 Z M 311.1875 160.640625 " clip-rule="nonzero"/></clipPath><clipPath id="6706e230e6"><path d="M 765 114.113281 L 804 114.113281 L 804 229 L 765 229 Z M 765 114.113281 " clip-rule="nonzero"/></clipPath><clipPath id="d1e728f203"><path d="M 555 339 L 693 339 L 693 660.699219 L 555 660.699219 Z M 555 339 " clip-rule="nonzero"/></clipPath></defs><path fill="#355834" d="M 493.703125 181.972656 L 748.296875 181.972656 C 750.644531 181.972656 752.554688 180.070312 752.554688 177.71875 L 752.554688 164.945312 C 752.554688 162.597656 750.644531 160.6875 748.296875 160.6875 L 493.703125 160.6875 C 491.351562 160.6875 489.445312 162.597656 489.445312 164.945312 L 489.445312 177.71875 C 489.445312 180.070312 491.351562 181.972656 493.703125 181.972656 " fill-opacity="1" fill-rule="nonzero"/><g clip-path="url(#47f4bedfac)"><path fill="#355834" d="M 868.273438 674.597656 L 377.476562 674.597656 C 352.621094 674.597656 332.476562 654.453125 332.476562 629.597656 L 332.476562 330.046875 L 913.269531 330.046875 L 913.269531 629.597656 C 913.269531 654.453125 893.125 674.597656 868.273438 674.597656 Z M 868.273438 160.6875 L 820.671875 160.6875 C 818.320312 160.6875 816.414062 162.59375 816.414062 164.945312 L 816.414062 177.714844 C 816.414062 180.066406 818.320312 181.976562 820.671875 181.976562 L 868.273438 181.976562 C 893.09375 181.976562 913.269531 202.152344 913.269531 227.019531 L 913.269531 308.757812 L 332.476562 308.757812 L 332.476562 227.019531 C 332.476562 202.152344 352.65625 181.976562 377.476562 181.976562 L 421.328125 181.976562 C 423.679688 181.976562 425.585938 180.066406 425.585938 177.714844 L 425.585938 164.945312 C 425.585938 162.59375 423.679688 160.6875 421.328125 160.6875 L 377.476562 160.6875 C 340.949219 160.6875 311.1875 190.445312 311.1875 227.019531 L 311.1875 629.597656 C 311.1875 666.058594 341.015625 695.886719 377.476562 695.886719 L 868.273438 695.886719 C 904.730469 695.886719 934.558594 666.058594 934.558594 629.597656 L 934.558594 227.019531 C 934.558594 190.445312 904.800781 160.6875 868.273438 160.6875 " fill-opacity="1" fill-rule="nonzero"/></g><path fill="#355834" d="M 457.515625 233.789062 C 468.074219 233.789062 476.671875 225.230469 476.671875 214.628906 L 476.671875 138.550781 C 476.671875 127.953125 468.074219 119.390625 457.515625 119.390625 C 446.914062 119.390625 438.355469 127.953125 438.355469 138.550781 L 438.355469 214.628906 C 438.355469 225.230469 446.914062 233.789062 457.515625 233.789062 " fill-opacity="1" fill-rule="nonzero"/><g clip-path="url(#6706e230e6)"><path fill="#355834" d="M 784.484375 228.550781 C 795.042969 228.550781 803.640625 219.949219 803.640625 209.390625 L 803.640625 133.269531 C 803.640625 122.710938 795.042969 114.113281 784.484375 114.113281 C 773.882812 114.113281 765.328125 122.710938 765.328125 133.269531 L 765.328125 209.390625 C 765.328125 219.949219 773.882812 228.550781 784.484375 228.550781 " fill-opacity="1" fill-rule="nonzero"/></g><path fill="#355834" d="M 508.835938 615.085938 C 501.992188 615.085938 497.429688 612.804688 492.867188 608.242188 L 401.636719 517.011719 C 392.515625 507.890625 392.515625 494.203125 401.636719 485.082031 L 492.867188 393.851562 C 501.992188 384.726562 515.675781 384.726562 524.800781 393.851562 C 533.921875 402.972656 533.921875 416.65625 524.800781 425.78125 L 449.535156 501.046875 L 524.800781 576.3125 C 533.921875 585.433594 533.921875 599.121094 524.800781 608.242188 C 520.238281 612.804688 515.675781 615.085938 508.835938 615.085938 Z M 508.835938 615.085938 " fill-opacity="1" fill-rule="nonzero"/><path fill="#355834" d="M 736.910156 615.085938 C 730.070312 615.085938 725.507812 612.804688 720.945312 608.242188 C 711.824219 599.121094 711.824219 585.433594 720.945312 576.3125 L 796.210938 501.046875 L 720.945312 425.78125 C 711.824219 416.65625 711.824219 402.972656 720.945312 393.851562 C 730.070312 384.726562 743.753906 384.726562 752.878906 393.851562 L 844.109375 485.082031 C 853.230469 494.203125 853.230469 507.890625 844.109375 517.011719 L 752.878906 608.242188 C 748.316406 612.804688 743.753906 615.085938 736.910156 615.085938 Z M 736.910156 615.085938 " fill-opacity="1" fill-rule="nonzero"/><g clip-path="url(#d1e728f203)"><path fill="#355834" d="M 577.257812 660.699219 C 574.976562 660.699219 572.695312 660.699219 570.414062 658.421875 C 559.011719 653.859375 552.167969 642.453125 556.730469 628.769531 L 647.960938 355.078125 C 652.523438 343.671875 663.925781 336.832031 677.613281 341.390625 C 689.015625 345.953125 695.859375 357.359375 691.296875 371.042969 L 600.066406 644.734375 C 595.503906 653.859375 586.378906 660.699219 577.257812 660.699219 Z M 577.257812 660.699219 " fill-opacity="1" fill-rule="nonzero"/></g></svg>